<svg width="38" height="38" viewBox="0 0 38 38" fill="none" xmlns="http://www.w3.org/2000/svg">
<path fill-rule="evenodd" clip-rule="evenodd" d="M26.8324 15.2608C26.8324 21.6556 21.6484 26.8397 15.2535 26.8397C8.85872 26.8397 3.67469 21.6556 3.67469 15.2608C3.67469 8.86598 8.85872 3.68196 15.2535 3.68196C21.6484 3.68196 26.8324 8.86598 26.8324 15.2608ZM24.5557 26.2574C22.0461 28.3824 18.7995 29.6638 15.2535 29.6638C7.29901 29.6638 0.850586 23.2153 0.850586 15.2608C0.850586 7.30627 7.29901 0.857849 15.2535 0.857849C23.2081 0.857849 29.6565 7.30627 29.6565 15.2608C29.6565 18.6523 28.4843 21.7699 26.523 24.2308L27.0037 24.7115L36.8681 34.5758L37.8665 35.5743L35.8696 37.5713L34.8711 36.5728L25.0068 26.7085L24.5557 26.2574Z" fill="#C4C4C4"/>
</svg>
